<svg width="1102" height="238" viewBox="0 0 1102 238" fill="none" xmlns="http://www.w3.org/2000/svg">
<path d="M18.138 5.69368C23.4392 2.66583 29.2784 9.84383 34.6939 15.3551C40.1093 20.8664 55.2051 35.934 70.2881 46.7103C85.3711 57.4866 97.2021 69.8134 103.524 73.3378C106.148 74.7775 109.272 74.9641 111.743 73.6566C118.969 70.5517 126.925 64.7534 145.639 58.8701C164.353 52.9869 163.356 53.2835 177.7 46.0743C192.044 38.8652 201.037 34.6352 201.8 34.3926C204.868 33.4179 209 37.1511 212.724 40.837C216.414 44.4886 219.711 48.0765 219.299 50.6732C218.354 56.6333 207.126 46.7701 200.754 46.7103C194.382 46.6506 177.139 64.2078 152.57 76.443C128.001 88.6782 124.181 92.6938 117.975 109.031C111.768 125.368 122.884 164.216 123.528 168.078C124.171 171.94 123.514 177.246 123.549 188.592C123.585 199.938 123.586 195.186 123.428 203.269C123.308 209.365 122.547 214.453 122.223 220.452C122.157 221.96 122.14 222.294 122.14 222.294C122.14 224.476 120.915 230.21 122.962 232.936C123.549 233.719 126.046 234.084 127.666 234.263C129.323 234.445 130.825 234.341 131.776 234.586C132.11 234.672 132.316 234.749 132.481 235.282C132.646 235.814 132.52 236.258 132.328 236.516C132.179 236.811 131.981 236.811 131.557 236.889C130.782 237.033 129.926 237.019 128.005 237.019C123.676 237.019 123.251 237.435 120.377 236.626C118.057 235.59 116.278 234.024 115.68 229.837C115.093 223.236 115.169 210.081 114.772 203.799C114.374 197.517 114.195 197.256 113.539 192.469C112.884 187.681 112.341 180.071 112.189 177.388C112.037 174.705 111.305 171.857 110.089 169.064C108.872 166.271 102.506 166.203 105.118 174.295C106.839 177.852 108.248 181.584 108.275 185.016C108.336 192.717 103.715 199.715 96.1805 199.068C88.2818 198.389 86.3497 191.058 86.8243 185.016C87.2392 179.734 89.626 174.824 89.7284 174.519C92.4388 166.453 87.1004 162.634 83.326 173.087C82.4414 175.842 81.5779 186.118 80.6174 191.939C79.7181 195.989 79.2124 201.573 78.7404 206.197C78.0658 212.807 77.1861 223.758 77.1264 227.516L77.0778 227.844C76.2982 233.105 75.8446 236.165 73.1763 236.986C69.8943 237.655 69.9421 237.421 65.892 237.421C63.9424 237.421 63.059 237.442 62.2325 237.357C62.0135 237.334 61.7313 237.332 61.576 237.268C61.2648 237.14 61.1523 236.894 61.058 236.513C61.0079 236.31 61.004 236.047 61.004 235.748C61.004 235.516 61.1915 235.298 61.3926 235.094C61.6112 234.919 61.7649 234.843 62.1524 234.736C63.3235 234.413 64.8016 234.645 66.5704 234.452C68.3031 234.263 69.9486 233.673 70.5846 232.936C71.3393 232.062 70.7901 227.483 70.5846 222.294C70.3339 215.96 69.7206 208.718 69.9704 206.197C70.4248 201.611 70.7234 185.441 71.2446 177.388C71.7659 169.335 72.7743 166.397 74.5422 158.506C76.3101 150.615 81.8918 117.069 83.3762 105.12C84.8606 93.1705 79.9253 85.5807 77.4678 82.3517C74.1536 77.9969 65.299 71.1722 53.1999 56.4834C41.1009 41.7945 23.8266 17.6802 17.6781 17.6802C11.5297 17.6802 0.505137 26.3226 0.171089 21.7769C-0.162959 17.2313 13.4279 8.31482 18.138 5.69368Z" fill="black"/>
<path d="M285.972 168.311C308.189 168.311 319.96 158.259 329.818 141.941L320.548 135.239C312.456 150.245 301.715 157.384 286.266 157.384C264.196 157.384 248.306 139.318 248.306 115.279C248.306 90.9478 265.667 73.1732 286.413 73.1732C301.127 73.1732 311.72 79.438 320.107 95.3187L329.818 88.4711C322.461 72.7361 306.865 62.2461 286.708 62.2461C259.046 62.2461 235.946 84.8287 235.946 115.279C235.946 145.729 257.134 168.311 285.972 168.311Z" fill="black"/>
<path d="M338.589 166.272H351.683L363.454 136.259H408.772L420.542 166.272H433.637L392.44 64.2858H379.786L338.589 166.272ZM367.574 125.769L383.317 85.5571C384.347 83.226 385.524 79.8751 386.113 77.8354C386.701 79.8751 387.878 83.226 388.908 85.5571L404.652 125.769H367.574Z" fill="black"/>
<path d="M447.981 166.272H460.34V122.126H483.881L509.188 166.272H522.872L497.418 121.252C512.867 117.756 522.136 107.703 522.136 92.6962C522.136 76.3784 509.924 64.2858 489.031 64.2858H447.981V166.272ZM460.34 111.491V74.9215H487.56C501.685 74.9215 509.777 80.8949 509.777 93.2789C509.777 105.517 501.685 111.491 487.56 111.491H460.34Z" fill="black"/>
<path d="M565.958 166.272H578.317V75.2129H610.098V64.2858H534.177V75.2129H565.958V166.272Z" fill="black"/>
<path d="M655.358 166.272H668.894L707.002 64.2858H694.054L665.951 141.504C665.951 141.504 663.744 147.914 662.126 153.305C660.507 147.914 658.3 141.504 658.3 141.504L630.198 64.2858H617.25L655.358 166.272Z" fill="black"/>
<path d="M693.779 166.272H707.316L745.423 64.2858H732.476L704.373 141.504C704.373 141.504 702.166 147.914 700.547 153.305C698.929 147.914 696.722 141.504 696.722 141.504L668.619 64.2858H655.672L693.779 166.272Z" fill="black"/>
<path d="M757.715 166.272H770.074V119.795H822.454V166.272H834.813V64.2858H822.454V108.723H770.074V64.2858H757.715V166.272Z" fill="black"/>
<path d="M859.301 166.272H924.04V155.49H871.66V118.921H919.478V108.14H871.66V75.0672H923.598V64.2858H859.301V166.272Z" fill="black"/>
<path d="M946.156 166.272H1010.89V155.49H958.515V118.921H1006.33V108.14H958.515V75.0672H1010.45V64.2858H946.156V166.272Z" fill="black"/>
<path d="M1033.01 166.272H1097.75V155.345H1045.37V64.2858H1033.01V166.272Z" fill="black"/>
<path d="M261.009 237.769C270.522 237.769 275.562 233.422 279.783 226.366L275.814 223.468C272.349 229.957 267.75 233.044 261.135 233.044C251.685 233.044 244.881 225.232 244.881 214.837C244.881 204.316 252.315 196.63 261.198 196.63C267.498 196.63 272.034 199.339 275.625 206.206L279.783 203.245C276.633 196.441 269.955 191.905 261.324 191.905C249.48 191.905 239.589 201.67 239.589 214.837C239.589 228.004 248.661 237.769 261.009 237.769ZM315.847 237.769C327.88 237.769 337.204 228.571 337.204 214.837C337.204 201.103 327.88 191.905 315.847 191.905C303.814 191.905 294.49 201.103 294.49 214.837C294.49 228.571 303.814 237.769 315.847 237.769ZM315.847 233.044C306.649 233.044 299.782 225.862 299.782 214.837C299.782 203.812 306.649 196.63 315.847 196.63C325.045 196.63 331.912 203.812 331.912 214.837C331.912 225.862 325.045 233.044 315.847 233.044ZM353.804 236.887H359.096V217.672H380.264V213.01H359.096V197.449H382.154V192.787H353.804V236.887ZM398.615 236.887H403.907V217.672H425.075V213.01H403.907V197.449H426.965V192.787H398.615V236.887ZM443.426 236.887H471.146V232.225H448.718V216.412H469.193V211.75H448.718V197.449H470.957V192.787H443.426V236.887ZM488.176 236.887H515.896V232.225H493.468V216.412H513.943V211.75H493.468V197.449H515.707V192.787H488.176V236.887ZM560.202 236.887H565.494V217.798H575.574L586.41 236.887H592.269L581.37 217.42C587.985 215.908 591.954 211.561 591.954 205.072C591.954 198.016 586.725 192.787 577.779 192.787H560.202V236.887ZM565.494 213.199V197.386H577.149C583.197 197.386 586.662 199.969 586.662 205.324C586.662 210.616 583.197 213.199 577.149 213.199H565.494ZM627.434 237.769C639.467 237.769 648.791 228.571 648.791 214.837C648.791 201.103 639.467 191.905 627.434 191.905C615.401 191.905 606.077 201.103 606.077 214.837C606.077 228.571 615.401 237.769 627.434 237.769ZM627.434 233.044C618.236 233.044 611.369 225.862 611.369 214.837C611.369 203.812 618.236 196.63 627.434 196.63C636.632 196.63 643.499 203.812 643.499 214.837C643.499 225.862 636.632 233.044 627.434 233.044ZM658.694 236.887H664.301L669.341 223.909H688.745L693.785 236.887H699.392L681.752 192.787H676.334L658.694 236.887ZM671.105 219.373L677.846 201.985C678.287 200.977 678.791 199.528 679.043 198.646C679.295 199.528 679.799 200.977 680.24 201.985L686.981 219.373H671.105ZM728.53 237.769C738.169 237.769 744.595 231.973 744.595 224.539C744.595 217.609 739.492 213.64 730.294 211.876C722.545 210.364 718.135 207.97 718.135 203.371C718.135 198.961 722.293 196.504 727.648 196.504C733.381 196.504 737.602 199.528 739.555 205.135L743.713 202.678C741.445 196 735.586 191.905 727.711 191.905C719.143 191.905 713.032 196.63 713.032 203.434C713.032 210.805 718.891 214.459 727.459 216.034C734.893 217.42 739.303 219.877 739.303 224.917C739.303 229.264 735.271 233.17 728.467 233.17C721.285 233.17 717.127 228.823 715.678 221.641L710.953 224.098C712.528 231.721 718.45 237.769 728.53 237.769ZM769.815 236.887H775.107V197.512H788.715V192.787H756.207V197.512H769.815V236.887ZM803.884 236.887H831.604V232.225H809.176V216.412H829.651V211.75H809.176V197.449H831.415V192.787H803.884V236.887ZM848.634 236.887H853.926V217.798H864.006L874.842 236.887H880.701L869.802 217.42C876.417 215.908 880.386 211.561 880.386 205.072C880.386 198.016 875.157 192.787 866.211 192.787H848.634V236.887ZM853.926 213.199V197.386H865.581C871.629 197.386 875.094 199.969 875.094 205.324C875.094 210.616 871.629 213.199 865.581 213.199H853.926ZM910.727 237.769C920.366 237.769 926.792 231.973 926.792 224.539C926.792 217.609 921.689 213.64 912.491 211.876C904.742 210.364 900.332 207.97 900.332 203.371C900.332 198.961 904.49 196.504 909.845 196.504C915.578 196.504 919.799 199.528 921.752 205.135L925.91 202.678C923.642 196 917.783 191.905 909.908 191.905C901.34 191.905 895.229 196.63 895.229 203.434C895.229 210.805 901.088 214.459 909.656 216.034C917.09 217.42 921.5 219.877 921.5 224.917C921.5 229.264 917.468 233.17 910.664 233.17C903.482 233.17 899.324 228.823 897.875 221.641L893.15 224.098C894.725 231.721 900.647 237.769 910.727 237.769Z" fill="black"/>
</svg>
